<?xml version="1.0" encoding="iso-8859-1"?>
<!-- Generator: Adobe Illustrator 19.0.0, SVG Export Plug-In . SVG Version: 6.00 Build 0)  -->
<svg version="1.1" id="Capa_1" xmlns="http://www.w3.org/2000/svg" xmlns:xlink="http://www.w3.org/1999/xlink" x="0px" y="0px"
	 viewBox="0 0 511.843 511.843" style="enable-background:new 0 0 511.843 511.843;" xml:space="preserve">
<g>
	<g>
		<path d="M20.227,83.975h-0.078c-2.21,0-3.959,1.788-3.959,3.999c0,2.21,1.835,3.998,4.038,3.998c2.21,0,3.998-1.788,3.998-3.998
			C24.226,85.763,22.437,83.975,20.227,83.975z"/>
	</g>
</g>
<g>
	<g>
		<path d="M36.222,83.975h-0.078c-2.21,0-3.959,1.788-3.959,3.999c0,2.21,1.835,3.998,4.038,3.998c2.21,0,3.998-1.788,3.998-3.998
			C40.221,85.763,38.432,83.975,36.222,83.975z"/>
	</g>
</g>
<g>
	<g>
		<path d="M52.217,83.975h-0.078c-2.21,0-3.959,1.788-3.959,3.999c0,2.21,1.835,3.998,4.038,3.998c2.21,0,3.998-1.788,3.998-3.998
			C56.216,85.763,54.427,83.975,52.217,83.975z"/>
	</g>
</g>
<g>
	<g>
		<path d="M499.847,75.977H11.996C5.381,75.977,0,81.359,0,87.974v7.997c0,2.21,1.789,3.999,3.999,3.999h503.846
			c2.209,0,3.998-1.789,3.998-3.999v-7.997C511.843,81.359,506.462,75.977,499.847,75.977z M503.845,91.972H7.997v-3.998
			c0-2.203,1.789-3.999,3.999-3.999h487.851c2.17,0,3.998,1.827,3.998,3.999V91.972z"/>
	</g>
</g>
<g>
	<g>
		<path d="M507.845,91.972H3.999C1.789,91.972,0,93.761,0,95.971v335.897c0,2.21,1.789,3.999,3.999,3.999h503.846
			c2.209,0,3.998-1.789,3.998-3.999V95.971C511.843,93.761,510.054,91.972,507.845,91.972z M503.845,427.868H7.997V99.97h495.848
			V427.868z"/>
	</g>
</g>
<g>
	<g>
		<path d="M411.874,115.965H27.991c-2.21,0-3.999,1.788-3.999,3.999v47.985c0,2.21,1.789,3.998,3.999,3.998h383.883
			c2.209,0,3.998-1.788,3.998-3.998v-47.985C415.872,117.753,414.083,115.965,411.874,115.965z M407.874,163.95H31.99v-39.988
			h375.884V163.95z"/>
	</g>
</g>
<g>
	<g>
		<path d="M475.855,115.965h-63.98c-2.211,0-4,1.788-4,3.999v47.985c0,2.21,1.789,3.998,4,3.998h63.98
			c2.209,0,3.998-1.788,3.998-3.998v-47.985C479.853,117.753,478.064,115.965,475.855,115.965z M471.854,163.95h-55.982v-39.988
			h55.982V163.95z"/>
	</g>
</g>
<g>
	<g>
		<path d="M439.864,123.962c-8.816,0-15.994,7.178-15.994,15.995c0,8.818,7.178,15.995,15.994,15.995
			c8.827,0,15.996-7.176,15.996-15.995C455.86,131.14,448.69,123.962,439.864,123.962z M439.864,147.954
			c-4.404,0-7.998-3.585-7.998-7.998c0-4.412,3.594-7.997,7.998-7.997c4.414,0,7.998,3.585,7.998,7.997
			C447.862,144.37,444.278,147.954,439.864,147.954z"/>
	</g>
</g>
<g>
	<g>
		<path d="M462.687,157.124l-11.529-11.527c-1.56-1.562-4.092-1.562-5.654,0c-1.561,1.561-1.561,4.092,0,5.654l11.529,11.527
			c0.779,0.781,1.803,1.172,2.826,1.172s2.046-0.39,2.828-1.172C464.248,161.217,464.248,158.686,462.687,157.124z"/>
	</g>
</g>
<g>
	<g>
		<path d="M387.879,139.957H51.983c-2.211,0-3.999,1.789-3.999,3.999c0,2.21,1.789,3.999,3.999,3.999H387.88
			c2.211,0,3.999-1.789,3.999-3.999C391.879,141.746,390.09,139.957,387.879,139.957z"/>
	</g>
</g>
<g>
	<g>
		<path d="M75.976,187.943H27.991c-2.21,0-3.999,1.789-3.999,3.999c0,2.21,1.789,3.999,3.999,3.999h47.985
			c2.211,0,3.999-1.789,3.999-3.999C79.975,189.732,78.186,187.943,75.976,187.943z"/>
	</g>
</g>
<g>
	<g>
		<path d="M147.954,187.943H99.969c-2.211,0-3.999,1.789-3.999,3.999c0,2.21,1.789,3.999,3.999,3.999h47.985
			c2.211,0,3.999-1.789,3.999-3.999C151.953,189.732,150.164,187.943,147.954,187.943z"/>
	</g>
</g>
<g>
	<g>
		<path d="M219.932,187.943h-47.985c-2.21,0-3.999,1.789-3.999,3.999c0,2.21,1.789,3.999,3.999,3.999h47.985
			c2.21,0,3.999-1.789,3.999-3.999C223.931,189.732,222.142,187.943,219.932,187.943z"/>
	</g>
</g>
<g>
	<g>
		<path d="M291.909,187.943h-47.985c-2.21,0-3.999,1.789-3.999,3.999c0,2.21,1.789,3.999,3.999,3.999h47.985
			c2.211,0,4-1.789,4-3.999C295.909,189.732,294.12,187.943,291.909,187.943z"/>
	</g>
</g>
<g>
	<g>
		<path d="M123.962,227.931H27.991c-2.21,0-3.999,1.788-3.999,3.998c0,2.211,1.789,3.999,3.999,3.999h95.971
			c2.209,0,3.999-1.788,3.999-3.999C127.961,229.719,126.172,227.931,123.962,227.931z"/>
	</g>
</g>
<g>
	<g>
		<path d="M331.898,243.926H27.991c-2.21,0-3.999,1.788-3.999,3.998c0,2.211,1.789,3.999,3.999,3.999h303.907
			c2.211,0,4-1.788,4-3.999C335.898,245.714,334.109,243.926,331.898,243.926z"/>
	</g>
</g>
<g>
	<g>
		<path d="M331.898,259.921H27.991c-2.21,0-3.999,1.788-3.999,3.999c0,2.21,1.789,3.998,3.999,3.998h303.907
			c2.211,0,4-1.788,4-3.998C335.898,261.709,334.109,259.921,331.898,259.921z"/>
	</g>
</g>
<g>
	<g>
		<path d="M163.949,291.911H27.991c-2.21,0-3.999,1.788-3.999,3.999c0,2.21,1.789,3.998,3.999,3.998h135.958
			c2.211,0,3.999-1.788,3.999-3.998C167.948,293.699,166.159,291.911,163.949,291.911z"/>
	</g>
</g>
<g>
	<g>
		<path d="M331.898,307.906H27.991c-2.21,0-3.999,1.788-3.999,3.998c0,2.211,1.789,3.999,3.999,3.999h303.907
			c2.211,0,4-1.788,4-3.999C335.898,309.694,334.109,307.906,331.898,307.906z"/>
	</g>
</g>
<g>
	<g>
		<path d="M331.898,323.902H27.991c-2.21,0-3.999,1.788-3.999,3.999c0,2.21,1.789,3.998,3.999,3.998h303.907
			c2.211,0,4-1.789,4-3.998C335.898,325.69,334.109,323.902,331.898,323.902z"/>
	</g>
</g>
<g>
	<g>
		<path d="M123.962,355.892H27.991c-2.21,0-3.999,1.788-3.999,3.999c0,2.21,1.789,3.998,3.999,3.998h95.971
			c2.209,0,3.999-1.788,3.999-3.998C127.961,357.68,126.172,355.892,123.962,355.892z"/>
	</g>
</g>
<g>
	<g>
		<path d="M331.898,371.887H27.991c-2.21,0-3.999,1.788-3.999,3.998c0,2.211,1.789,3.999,3.999,3.999h303.907
			c2.211,0,4-1.788,4-3.999C335.898,373.675,334.109,371.887,331.898,371.887z"/>
	</g>
</g>
<g>
	<g>
		<path d="M331.898,387.881H27.991c-2.21,0-3.999,1.789-3.999,3.999c0,2.211,1.789,3.999,3.999,3.999h303.907
			c2.211,0,4-1.788,4-3.999C335.898,389.67,334.109,387.881,331.898,387.881z"/>
	</g>
</g>
<g>
	<g>
		<path d="M163.949,411.874H27.991c-2.21,0-3.999,1.788-3.999,3.999c0,2.21,1.789,3.998,3.999,3.998h135.958
			c2.211,0,3.999-1.788,3.999-3.998C167.948,413.662,166.159,411.874,163.949,411.874z"/>
	</g>
</g>
<g>
	<g>
		<path d="M483.851,227.93H363.888c-2.211,0-3.998,1.788-3.998,3.998v87.974c0,2.21,1.787,3.999,3.998,3.999h119.963
			c2.211,0,4-1.789,4-3.999v-87.974C487.851,229.718,486.062,227.93,483.851,227.93z M479.853,315.902H367.888v-79.976h111.965
			V315.902z"/>
	</g>
</g>
<g>
	<g>
		<path d="M487.109,317.574l-39.988-55.983c-1.5-2.093-5.006-2.093-6.506,0l-39.988,55.983c-1.287,1.804-0.865,4.295,0.93,5.584
			c1.797,1.28,4.297,0.859,5.576-0.93l36.732-51.429l36.738,51.429c0.781,1.094,2.006,1.672,3.256,1.672
			c0.804,0,1.617-0.242,2.32-0.742C487.976,321.87,488.39,319.379,487.109,317.574z"/>
	</g>
</g>
<g>
	<g>
		<path d="M418.763,301.087l-11.686-15.573c-1.505-2.015-4.888-2.015-6.396,0l-23.992,31.99c-1.328,1.765-0.969,4.273,0.797,5.6
			c0.718,0.539,1.562,0.797,2.398,0.797c1.217,0,2.412-0.554,3.201-1.602l20.791-27.726l8.49,11.309
			c1.327,1.774,3.834,2.133,5.6,0.805C419.73,305.358,420.081,302.852,418.763,301.087z"/>
	</g>
</g>
<g>
	<g>
		<path d="M387.88,243.926c-6.615,0-11.996,5.381-11.996,11.996s5.381,11.996,11.996,11.996s11.996-5.381,11.996-11.996
			S394.495,243.926,387.88,243.926z M387.88,259.921c-2.201,0-3.998-1.797-3.998-3.999c0-2.202,1.797-3.999,3.998-3.999
			c2.211,0,4,1.797,4,3.999C391.88,258.124,390.091,259.921,387.88,259.921z"/>
	</g>
</g>
<g>
	<g>
		<path d="M459.859,355.892H387.88c-2.209,0-3.998,1.788-3.998,3.999c0,2.21,1.789,3.998,3.998,3.998h71.979
			c2.21,0,3.998-1.788,3.998-3.998C463.857,357.68,462.07,355.892,459.859,355.892z"/>
	</g>
</g>
<g>
	<g>
		<path d="M459.859,339.897H387.88c-2.209,0-3.998,1.788-3.998,3.998c0,2.211,1.789,3.999,3.998,3.999h71.979
			c2.21,0,3.998-1.788,3.998-3.999C463.857,341.685,462.07,339.897,459.859,339.897z"/>
	</g>
</g>
<g>
	<g>
		<path d="M459.859,371.887H387.88c-2.209,0-3.998,1.788-3.998,3.998c0,2.211,1.789,3.999,3.998,3.999h71.979
			c2.21,0,3.998-1.788,3.998-3.999C463.857,373.675,462.07,371.887,459.859,371.887z"/>
	</g>
</g>
<g>
	<g>
		<path d="M459.859,387.881H387.88c-2.209,0-3.998,1.789-3.998,3.999c0,2.211,1.789,3.999,3.998,3.999h71.979
			c2.21,0,3.998-1.788,3.998-3.999C463.857,389.67,462.07,387.881,459.859,387.881z"/>
	</g>
</g>
<g>
	<g>
		<path d="M427.868,403.877H387.88c-2.209,0-3.998,1.788-3.998,3.998c0,2.211,1.789,3.999,3.998,3.999h39.988
			c2.211,0,3.998-1.788,3.998-3.999C431.866,405.665,430.079,403.877,427.868,403.877z"/>
	</g>
</g>
<g>
	<g>
		<path d="M363.888,315.903c-2.211,0-3.998,1.789-3.998,3.999v95.971c0,2.21,1.787,3.998,3.998,3.998s4-1.788,4-3.998v-95.971
			C367.888,317.692,366.099,315.903,363.888,315.903z"/>
	</g>
</g>
<g>
	<g>
		<path d="M483.851,315.903c-2.209,0-3.998,1.789-3.998,3.999v95.971c0,2.21,1.789,3.998,3.998,3.998c2.211,0,4-1.788,4-3.998
			v-95.971C487.851,317.692,486.062,315.903,483.851,315.903z"/>
	</g>
</g>
<g>
</g>
<g>
</g>
<g>
</g>
<g>
</g>
<g>
</g>
<g>
</g>
<g>
</g>
<g>
</g>
<g>
</g>
<g>
</g>
<g>
</g>
<g>
</g>
<g>
</g>
<g>
</g>
<g>
</g>
</svg>
